<svg xmlns="http://www.w3.org/2000/svg" style="position:absolute;width:0;height:0;overflow:hidden">
  <symbol id="icon-check" viewBox="0 0 20 20">
    <path fill="currentColor" d="M16.7 5.3a1 1 0 0 1 0 1.4l-8 8a1 1 0 0 1-1.4 0l-4-4a1 1 0 1 1 1.4-1.4l3.3 3.3 7.3-7.3a1 1 0 0 1 1.4 0z"/>
  </symbol>
  <symbol id="icon-warning" viewBox="0 0 24 24">
    <path fill="currentColor" d="M1 21h22L12 2 1 21zm12-3h-2v2h2v-2zm0-8h-2v6h2V10z"/>
  </symbol>
  <symbol id="icon-info" viewBox="0 0 24 24">
    <path fill="currentColor" d="M12 2a10 10 0 1 0 0 20 10 10 0 0 0 0-20zm1 15h-2v-6h2v6zm0-8h-2V7h2v2z"/>
  </symbol>
  <symbol id="icon-compass" viewBox="0 0 24 24">
    <path fill="currentColor" d="M12 2a10 10 0 1 0 0 20 10 10 0 0 0 0-20zm3.5 3.5L14 14l-8.5 1.5L10 10l5.5-4.5z"/>
  </symbol>
  <symbol id="icon-brain" viewBox="0 0 24 24">
    <path fill="currentColor" d="M9 3a3 3 0 0 0-3 3v1a3 3 0 0 0-3 3c0 1.3.8 2.4 2 2.8V14a4 4 0 0 0 4 4h1V5a2 2 0 0 0-1-2zm6 0a3 3 0 0 1 3 3v1a3 3 0 0 1 3 3c0 1.3-.8 2.4-2 2.8V14a4 4 0 0 1-4 4h-1V5a2 2 0 0 1 1-2z"/>
  </symbol>
</svg>
